<svg width="602" height="109" viewBox="0 0 602 109" fill="none" xmlns="http://www.w3.org/2000/svg">
<path d="M65.0612 80.3307L67.5195 78.5599C70.6133 76.7266 72.8008 75.8099 74.082 75.8099C76.9154 75.8099 79.9674 78.3672 83.2487 83.4766C85.2591 86.6745 86.2695 89.2266 86.2695 91.1432C86.2695 93.0599 85.6497 94.6589 84.4154 95.9349C83.1914 97.2161 81.7539 98.3516 80.1029 99.3516C78.4622 100.352 76.8841 101.31 75.3737 102.227C73.8737 103.143 70.7956 104.331 66.1445 105.789C61.4883 107.247 56.9987 107.977 52.6654 107.977C48.332 107.977 43.9466 107.404 39.5195 106.268C35.1029 105.117 30.5456 103.201 25.8529 100.518C21.1549 97.8255 16.9362 94.5391 13.1862 90.6641C9.44662 86.7891 6.3737 81.8203 3.95703 75.7474C1.54036 69.6797 0.332031 63.0911 0.332031 55.9766C0.332031 48.8672 1.51953 42.4141 3.89453 36.6224C6.26953 30.8203 9.30078 26.0286 12.9987 22.2474C16.6914 18.4557 20.9049 15.2839 25.6445 12.7266C34.5872 7.8099 43.5716 5.35156 52.6029 5.35156C56.8945 5.35156 61.2487 6.01302 65.6654 7.33073C70.0924 8.65365 73.4466 9.9974 75.7279 11.3724L79.0195 13.2891C80.655 14.2891 81.9362 15.112 82.8529 15.7474C85.2122 17.6641 86.3945 19.8307 86.3945 22.2474C86.3945 24.6641 85.4414 27.1953 83.5404 29.8307C79.9674 34.763 76.7747 37.2266 73.957 37.2266C72.3164 37.2266 69.9883 36.2266 66.9779 34.2266C63.1445 31.1172 58.03 29.5599 51.6445 29.5599C45.7122 29.5599 39.8737 31.6172 34.1237 35.7266C31.3841 37.7266 29.1081 40.5547 27.2904 44.2057C25.4674 47.862 24.5612 51.9922 24.5612 56.6016C24.5612 61.2005 25.4674 65.3255 27.2904 68.9766C29.1081 72.6328 31.4362 75.5078 34.2695 77.6016C39.8372 81.6172 45.6289 83.6224 51.6445 83.6224C54.4779 83.6224 57.1445 83.2578 59.6445 82.5182C62.155 81.7839 63.9622 81.0547 65.0612 80.3307Z" fill="#00BF63"/>
<path d="M135.259 34.7686C144.368 34.7686 151.957 38.2373 158.03 45.1644C164.098 52.0967 167.134 60.5811 167.134 70.6227V94.7061C167.134 96.805 167.061 98.3831 166.926 99.4352C166.785 100.477 166.353 101.68 165.634 103.039C164.436 105.414 160.926 106.602 155.092 106.602C149.52 106.602 146.056 105.414 144.697 103.039C143.957 101.68 143.52 100.451 143.384 99.3519C143.259 98.2581 143.197 96.6123 143.197 94.4144V70.4769C143.197 66.7425 142.139 63.8258 140.03 61.7269C137.931 59.6331 135.264 58.5811 132.03 58.5811C128.79 58.5811 125.936 59.5602 123.467 61.5186C121.009 63.4769 119.598 65.6852 119.238 68.1436V94.7061C119.238 96.805 119.165 98.3831 119.03 99.4352C118.889 100.477 118.457 101.68 117.738 103.039C116.54 105.414 113.03 106.602 107.197 106.602C101.447 106.602 97.931 105.373 96.6549 102.914C96.0143 101.539 95.6237 100.352 95.4883 99.3519C95.3633 98.3519 95.3008 96.7581 95.3008 94.5602V12.7269C95.3008 10.6331 95.3633 9.06022 95.4883 8.01855C95.6237 6.96647 96.0143 5.79981 96.6549 4.51855C97.931 2.06022 101.493 0.831055 107.342 0.831055C113.077 0.831055 116.54 2.06022 117.738 4.51855C118.457 5.89355 118.889 7.1123 119.03 8.16439C119.165 9.20605 119.238 10.779 119.238 12.8727V43.1019C123.806 37.5498 129.145 34.7686 135.259 34.7686Z" fill="#00BF63"/>
<path d="M247.582 61.9349C247.582 67.5339 246.191 71.6797 243.415 74.3724C240.634 77.0703 237.561 78.4141 234.186 78.4141H201.749C201.749 80.9714 203.249 83.1172 206.249 84.8516C209.259 86.5755 212.275 87.4349 215.29 87.4349C220.582 87.4349 224.733 86.8932 227.749 85.8099L229.249 85.2474C231.441 84.2474 233.27 83.7474 234.728 83.7474C237.645 83.7474 240.15 85.8047 242.249 89.9141C243.426 92.3724 244.02 94.4714 244.02 96.2057C244.02 104.32 234.311 108.372 214.895 108.372C208.129 108.372 202.124 107.211 196.874 104.893C191.634 102.56 187.561 99.487 184.645 95.6641C178.895 88.2786 176.02 80.0182 176.02 70.8932C176.02 59.3932 179.733 50.2005 187.165 43.3099C194.608 36.4245 203.895 32.9766 215.02 32.9766C227.697 32.9766 237.004 37.4505 242.936 46.3932C246.03 51.1432 247.582 56.3255 247.582 61.9349ZM218.707 65.9557C222.176 65.9557 223.915 64.4974 223.915 61.5807C223.915 59.487 223.113 57.7995 221.52 56.5182C219.921 55.2422 217.634 54.6016 214.665 54.6016C211.707 54.6016 208.77 55.8099 205.853 58.2266C202.936 60.6432 201.478 63.2214 201.478 65.9557H218.707Z" fill="#00BF63"/>
<path d="M279.047 70.5391C279.047 74.4141 280.323 77.4297 282.88 79.5807C285.432 81.7214 288.151 82.7891 291.026 82.7891C293.901 82.7891 296.589 81.9505 299.089 80.2682C301.599 78.5755 303.635 77.7266 305.193 77.7266C307.927 77.7266 311.255 80.1432 315.172 84.9766C317.266 87.6328 318.318 90.0078 318.318 92.1016C318.318 95.5599 315.807 98.7995 310.797 101.81C305.599 105.466 299.219 107.289 291.651 107.289C283.161 107.289 274.995 104.237 267.151 98.1224C263.411 95.2057 260.359 91.3099 257.984 86.4349C255.609 81.5495 254.422 76.1641 254.422 70.2891C254.422 64.4036 255.609 59.0599 257.984 54.2682C260.359 49.4766 263.411 45.6224 267.151 42.7057C274.719 36.6797 282.797 33.6641 291.38 33.6641C294.839 33.6641 298.203 34.1432 301.484 35.1016C304.776 36.0599 307.198 36.9974 308.755 37.9141L310.943 39.2891C312.578 40.3724 313.859 41.237 314.776 41.8724C317.135 43.7057 318.318 45.7891 318.318 48.1224C318.318 50.4453 317.365 53.0599 315.464 55.9766C312.172 60.9922 309.016 63.4974 306.005 63.4974C304.281 63.4974 301.823 62.4974 298.63 60.4974C296.974 58.9453 294.62 58.1641 291.568 58.1641C288.51 58.1641 285.656 59.263 283.005 61.4557C280.365 63.638 279.047 66.6641 279.047 70.5391Z" fill="#00BF63"/>
<path d="M369.641 70.4762L387.829 85.5387C390.12 87.445 391.558 88.9033 392.141 89.9137C392.735 90.9137 393.037 91.8721 393.037 92.7887C393.037 94.971 391.62 97.9346 388.787 101.685C385.688 105.507 382.954 107.414 380.579 107.414C378.579 107.414 375.798 106.096 372.245 103.455L370.87 102.497C368.771 100.763 365.527 97.7262 361.141 93.3929C356.766 89.0596 353.438 85.9867 351.162 84.1637V94.7054C351.162 96.8044 351.089 98.3825 350.954 99.4346C350.813 100.476 350.381 101.679 349.662 103.039C348.464 105.414 344.954 106.601 339.12 106.601C333.37 106.601 329.855 105.372 328.579 102.914C327.938 101.539 327.548 100.33 327.412 99.2887C327.287 98.2367 327.225 96.6585 327.225 94.5596V12.6012C327.225 10.5075 327.287 8.93457 327.412 7.8929C327.548 6.84082 327.938 5.62207 328.579 4.24707C329.855 1.78874 333.417 0.55957 339.266 0.55957C343.641 0.55957 346.735 1.3304 348.558 2.87207C350.11 4.15332 350.938 6.15853 351.037 8.8929C351.12 9.72624 351.162 11.0075 351.162 12.7262V56.1012C352.798 54.7419 355.287 52.4242 358.62 49.1429C361.954 45.8512 364.438 43.5179 366.079 42.1429L367.725 41.0596C370.917 38.6012 373.652 37.3721 375.933 37.3721C378.209 37.3721 380.829 39.221 383.787 42.9137C386.756 46.6117 388.245 49.5075 388.245 51.6012C388.245 53.7002 386.558 56.1585 383.183 58.9762L369.641 70.4762Z" fill="#00BF63"/>
<path d="M400.564 12.6012C400.564 10.5075 400.627 8.93457 400.752 7.8929C400.887 6.84082 401.278 5.62207 401.919 4.24707C403.195 1.78874 406.757 0.55957 412.606 0.55957C418.158 0.55957 421.627 1.78874 423.002 4.24707C423.721 5.62207 424.153 6.86165 424.294 7.9554C424.429 9.03874 424.502 10.6325 424.502 12.7262V76.0804C424.502 79.3721 424.773 81.4554 425.314 82.3304C425.867 83.195 427.075 83.6221 428.939 83.6221C430.814 83.6221 432.07 83.695 432.71 83.8304C433.346 83.9554 434.127 84.3408 435.044 84.9762C436.861 86.1742 437.773 89.4137 437.773 94.7054C437.773 100.445 436.861 103.95 435.044 105.226C432.669 106.877 427.007 107.153 418.064 106.06C411.049 105.143 406.492 102.82 404.398 99.0804C401.84 94.6117 400.564 87.4919 400.564 77.7262V12.6012Z" fill="#00BF63"/>
<path d="M445.307 46.5394C445.307 44.4456 445.369 42.8727 445.494 41.8311C445.63 40.779 446.02 39.5602 446.661 38.1852C447.937 35.8102 451.499 34.6227 457.348 34.6227C461.723 34.6227 464.817 35.404 466.64 36.9561C468.192 38.2373 469.02 40.1956 469.119 42.8311C469.202 43.7477 469.244 45.0758 469.244 46.8102V94.7061C469.244 96.805 469.171 98.3831 469.036 99.4352C468.895 100.477 468.463 101.68 467.744 103.039C466.546 105.414 463.036 106.602 457.202 106.602C451.452 106.602 447.937 105.373 446.661 102.914C446.02 101.539 445.63 100.352 445.494 99.3519C445.369 98.3519 445.307 96.7581 445.307 94.5602V46.5394ZM467.807 21.1644C467.124 22.4873 465.916 23.4144 464.182 23.9561C462.442 24.4977 460.14 24.7686 457.265 24.7686C454.4 24.7686 452.104 24.4977 450.369 23.9561C448.63 23.4144 447.416 22.4561 446.723 21.0811C446.041 19.7061 445.63 18.4977 445.494 17.4561C445.369 16.404 445.307 14.8258 445.307 12.7269C445.307 10.6331 445.369 9.06022 445.494 8.01855C445.63 6.96647 446.02 5.79981 446.661 4.51855C447.937 2.06022 451.499 0.831055 457.348 0.831055C463.083 0.831055 466.546 2.06022 467.744 4.51855C468.463 5.89355 468.895 7.1123 469.036 8.16439C469.171 9.20605 469.244 10.779 469.244 12.8727C469.244 14.9717 469.171 16.5498 469.036 17.6019C468.895 18.6436 468.484 19.8311 467.807 21.1644Z" fill="#00BF63"/>
<path d="M480.74 100.164C479 99.07 478.136 97.3408 478.136 94.9762C478.136 92.6012 479.87 88.9971 483.344 84.1637C484.344 82.6117 485.959 81.8304 488.198 81.8304C490.433 81.8304 493.469 82.9502 497.302 85.1846C501.136 87.4242 504.599 88.5387 507.698 88.5387C513.266 88.5387 516.052 87.445 516.052 85.2471C516.052 83.5283 512.99 82.2471 506.865 81.4137C501.125 80.596 495.427 78.4554 489.761 74.9971C487.12 73.3617 484.933 70.7835 483.198 67.2679C481.459 63.7575 480.594 59.5804 480.594 54.7471C480.594 40.3304 490.495 33.1221 510.302 33.1221C516.771 33.1221 523.433 34.6742 530.282 37.7679C533.459 39.2262 535.052 41.0544 535.052 43.2471C535.052 45.445 534.042 48.1377 532.032 51.3304C530.032 54.5127 527.979 56.1012 525.886 56.1012C524.802 56.1012 522.771 55.4242 519.802 54.0596C516.844 52.6846 513.625 51.9971 510.157 51.9971C504.782 51.9971 502.094 53.0075 502.094 55.0179C502.094 57.7575 505.188 59.5335 511.386 60.3512C517.412 60.9919 523.25 62.7262 528.907 65.5596C531.542 66.8408 533.75 69.0544 535.532 72.2054C537.323 75.346 538.219 79.2887 538.219 84.0387C538.219 88.7783 537.323 92.8096 535.532 96.1429C533.75 99.4658 531.271 101.95 528.094 103.601C522.245 106.424 514.917 107.83 506.115 107.83C497.323 107.83 488.865 105.278 480.74 100.164Z" fill="#00BF63"/>
<path d="M588.982 58.7057L580.086 58.1641V77.0391C580.086 79.513 580.466 81.2995 581.232 82.3932C582.008 83.4766 583.466 84.0182 585.607 84.0182C587.758 84.0182 589.404 84.0911 590.545 84.2266C591.68 84.3672 592.888 84.8047 594.17 85.5391C596.263 86.7214 597.315 89.7786 597.315 94.7057C597.315 100.445 596.034 103.951 593.482 105.227C592.118 105.867 590.909 106.258 589.857 106.393C588.815 106.534 587.284 106.602 585.274 106.602C575.784 106.602 568.576 104.466 563.649 100.185C558.732 95.8932 556.274 88.638 556.274 78.4141V58.1641C554.534 58.4453 552.659 58.5807 550.649 58.5807C548.649 58.5807 546.987 57.8047 545.67 56.2474C544.347 54.6953 543.69 52.0495 543.69 48.3099C543.69 44.5755 543.909 41.8672 544.357 40.1849C544.815 38.4922 545.451 37.2786 546.274 36.5391C547.732 35.362 549.555 34.7682 551.753 34.7682L556.274 35.3099V21.2266C556.274 19.1328 556.336 17.5807 556.461 16.5807C556.597 15.5703 557.034 14.4714 557.774 13.2891C558.951 10.9974 562.466 9.85156 568.315 9.85156C574.508 9.85156 578.201 11.5391 579.399 14.9141C579.857 16.388 580.086 18.7161 580.086 21.8932V35.3099C584.097 34.9505 587.128 34.7682 589.17 34.7682C591.222 34.7682 592.774 34.8411 593.815 34.9766C594.868 35.1172 596.086 35.5495 597.461 36.2682C599.836 37.4505 601.024 40.9661 601.024 46.8099C601.024 52.5599 599.784 56.0755 597.315 57.3516C595.951 57.9766 594.743 58.362 593.69 58.4974C592.649 58.638 591.076 58.7057 588.982 58.7057Z" fill="#00BF63"/>
</svg>
